<svg width="30" height="30" viewBox="0 0 30 30" fill="none" xmlns="http://www.w3.org/2000/svg">
<path d="M24.375 29.25H19.4531C19.0664 29.25 18.75 28.9336 18.75 28.5469V26.2031C18.75 25.8164 19.0664 25.5 19.4531 25.5H24.375C25.4121 25.5 26.25 24.6621 26.25 23.625V12.375C26.25 11.3379 25.4121 10.5 24.375 10.5H19.4531C19.0664 10.5 18.75 10.1836 18.75 9.79688V7.45312C18.75 7.06641 19.0664 6.75 19.4531 6.75H24.375C27.4805 6.75 30 9.26953 30 12.375V23.625C30 26.7305 27.4805 29.25 24.375 29.25ZM21.6211 17.4727L11.7773 7.62891C10.8984 6.75 9.375 7.36523 9.375 8.625V14.25H1.40625C0.626953 14.25 0 14.877 0 15.6562V21.2812C0 22.0605 0.626953 22.6875 1.40625 22.6875H9.375V28.3125C9.375 29.5723 10.8984 30.1875 11.7773 29.3086L21.6211 19.4648C22.166 18.9141 22.166 18.0234 21.6211 17.4727Z" fill="#242424"/>
</svg>
