<svg width="30" height="30" viewBox="0 0 30 30" fill="none" xmlns="http://www.w3.org/2000/svg">
<path d="M15 15C19.7344 15 23.5714 11.6426 23.5714 7.5C23.5714 3.35742 19.7344 0 15 0C10.2656 0 6.42857 3.35742 6.42857 7.5C6.42857 11.6426 10.2656 15 15 15ZM21 16.875H19.8817C18.3951 17.4727 16.7411 17.8125 15 17.8125C13.2589 17.8125 11.6116 17.4727 10.1183 16.875H9C4.03125 16.875 0 20.4023 0 24.75V27.1875C0 28.7402 1.43973 30 3.21429 30H26.7857C28.5603 30 30 28.7402 30 27.1875V24.75C30 20.4023 25.9687 16.875 21 16.875Z" fill="#FECE2F"/>
</svg>
