<svg width="30" height="30" viewBox="0 0 30 30" fill="none" xmlns="http://www.w3.org/2000/svg">
<path d="M20.9687 4.875L25.6667 10.1602C25.8646 10.3828 25.8646 10.7461 25.6667 10.9687L14.2917 23.7656L9.45833 24.3691C8.8125 24.4512 8.26563 23.8359 8.33854 23.1094L8.875 17.6719L20.25 4.875C20.4479 4.65234 20.7708 4.65234 20.9687 4.875ZM29.4062 3.5332L26.8646 0.673828C26.0729 -0.216797 24.7865 -0.216797 23.9896 0.673828L22.1458 2.74805C21.9479 2.9707 21.9479 3.33398 22.1458 3.55664L26.8438 8.84179C27.0417 9.06445 27.3646 9.06445 27.5625 8.84179L29.4062 6.76758C30.1979 5.87109 30.1979 4.42383 29.4062 3.5332V3.5332ZM20 20.2852V26.25H3.33333V7.5H15.3021C15.4687 7.5 15.625 7.42383 15.7448 7.29492L17.8281 4.95117C18.224 4.50586 17.9427 3.75 17.3854 3.75H2.5C1.11979 3.75 0 5.00976 0 6.5625V27.1875C0 28.7402 1.11979 30 2.5 30H20.8333C22.2135 30 23.3333 28.7402 23.3333 27.1875V17.9414C23.3333 17.3145 22.6615 17.0039 22.2656 17.4434L20.1823 19.7871C20.0677 19.9219 20 20.0977 20 20.2852Z" fill="#232323"/>
</svg>
