<svg width="214" height="54" viewBox="0 0 214 54" fill="none" xmlns="http://www.w3.org/2000/svg">
<path d="M74.072 14.728V31.936C74.072 34.6 73.316 36.652 71.804 38.092C70.316 39.532 68.3 40.252 65.756 40.252C63.092 40.252 60.956 39.496 59.348 37.984C57.74 36.472 56.936 34.324 56.936 31.54H63.056C63.056 32.596 63.272 33.4 63.704 33.952C64.136 34.48 64.76 34.744 65.576 34.744C66.32 34.744 66.896 34.504 67.304 34.024C67.712 33.544 67.916 32.848 67.916 31.936V14.728H74.072ZM88.1885 40.252C86.3405 40.252 84.6845 39.952 83.2205 39.352C81.7565 38.752 80.5805 37.864 79.6925 36.688C78.8285 35.512 78.3725 34.096 78.3245 32.44H84.8765C84.9725 33.376 85.2965 34.096 85.8485 34.6C86.4005 35.08 87.1205 35.32 88.0085 35.32C88.9205 35.32 89.6405 35.116 90.1685 34.708C90.6965 34.276 90.9605 33.688 90.9605 32.944C90.9605 32.32 90.7445 31.804 90.3125 31.396C89.9045 30.988 89.3885 30.652 88.7645 30.388C88.1645 30.124 87.3005 29.824 86.1725 29.488C84.5405 28.984 83.2085 28.48 82.1765 27.976C81.1445 27.472 80.2565 26.728 79.5125 25.744C78.7685 24.76 78.3965 23.476 78.3965 21.892C78.3965 19.54 79.2485 17.704 80.9525 16.384C82.6565 15.04 84.8765 14.368 87.6125 14.368C90.3965 14.368 92.6405 15.04 94.3445 16.384C96.0485 17.704 96.9605 19.552 97.0805 21.928H90.4205C90.3725 21.112 90.0725 20.476 89.5205 20.02C88.9685 19.54 88.2605 19.3 87.3965 19.3C86.6525 19.3 86.0525 19.504 85.5965 19.912C85.1405 20.296 84.9125 20.86 84.9125 21.604C84.9125 22.42 85.2965 23.056 86.0645 23.512C86.8325 23.968 88.0325 24.46 89.6645 24.988C91.2965 25.54 92.6165 26.068 93.6245 26.572C94.6565 27.076 95.5445 27.808 96.2885 28.768C97.0325 29.728 97.4045 30.964 97.4045 32.476C97.4045 33.916 97.0325 35.224 96.2885 36.4C95.5685 37.576 94.5125 38.512 93.1205 39.208C91.7285 39.904 90.0845 40.252 88.1885 40.252ZM112.389 34.78V40H109.257C107.025 40 105.285 39.46 104.037 38.38C102.789 37.276 102.165 35.488 102.165 33.016V25.024H99.7169V19.912H102.165V15.016H108.321V19.912H112.353V25.024H108.321V33.088C108.321 33.688 108.465 34.12 108.753 34.384C109.041 34.648 109.521 34.78 110.193 34.78H112.389ZM124.962 40.288C122.994 40.288 121.218 39.868 119.634 39.028C118.074 38.188 116.838 36.988 115.926 35.428C115.038 33.868 114.594 32.044 114.594 29.956C114.594 27.892 115.05 26.08 115.962 24.52C116.874 22.936 118.122 21.724 119.706 20.884C121.29 20.044 123.066 19.624 125.034 19.624C127.002 19.624 128.778 20.044 130.362 20.884C131.946 21.724 133.194 22.936 134.106 24.52C135.018 26.08 135.474 27.892 135.474 29.956C135.474 32.02 135.006 33.844 134.07 35.428C133.158 36.988 131.898 38.188 130.29 39.028C128.706 39.868 126.93 40.288 124.962 40.288ZM124.962 34.96C126.138 34.96 127.134 34.528 127.95 33.664C128.79 32.8 129.21 31.564 129.21 29.956C129.21 28.348 128.802 27.112 127.986 26.248C127.194 25.384 126.21 24.952 125.034 24.952C123.834 24.952 122.838 25.384 122.046 26.248C121.254 27.088 120.858 28.324 120.858 29.956C120.858 31.564 121.242 32.8 122.01 33.664C122.802 34.528 123.786 34.96 124.962 34.96ZM137.516 29.956C137.516 27.868 137.936 26.044 138.776 24.484C139.64 22.924 140.828 21.724 142.34 20.884C143.876 20.044 145.628 19.624 147.596 19.624C150.116 19.624 152.216 20.284 153.896 21.604C155.6 22.924 156.716 24.784 157.244 27.184H150.692C150.14 25.648 149.072 24.88 147.488 24.88C146.36 24.88 145.46 25.324 144.788 26.212C144.116 27.076 143.78 28.324 143.78 29.956C143.78 31.588 144.116 32.848 144.788 33.736C145.46 34.6 146.36 35.032 147.488 35.032C149.072 35.032 150.14 34.264 150.692 32.728H157.244C156.716 35.08 155.6 36.928 153.896 38.272C152.192 39.616 150.092 40.288 147.596 40.288C145.628 40.288 143.876 39.868 142.34 39.028C140.828 38.188 139.64 36.988 138.776 35.428C137.936 33.868 137.516 32.044 137.516 29.956ZM172.813 40L166.693 31.576V40H160.537V13.36H166.693V28.084L172.777 19.912H180.373L172.021 29.992L180.445 40H172.813ZM203.311 19.912L190.711 49.54H184.087L188.695 39.316L180.523 19.912H187.399L192.043 32.476L196.651 19.912H203.311ZM208.417 40.288C207.337 40.288 206.449 39.976 205.753 39.352C205.081 38.704 204.745 37.912 204.745 36.976C204.745 36.016 205.081 35.212 205.753 34.564C206.449 33.916 207.337 33.592 208.417 33.592C209.473 33.592 210.337 33.916 211.009 34.564C211.705 35.212 212.053 36.016 212.053 36.976C212.053 37.912 211.705 38.704 211.009 39.352C210.337 39.976 209.473 40.288 208.417 40.288Z" fill="black"/>
<rect x="50" y="43.9809" width="37.7358" height="37.7358" transform="rotate(-179.87 50 43.9809)" fill="#232323"/>
<rect x="37.7498" y="37.8211" width="37.7358" height="37.7358" transform="rotate(-179.87 37.7498 37.8211)" fill="url(#paint0_linear)" fill-opacity="0.6"/>
<defs>
<linearGradient id="paint0_linear" x1="38.9855" y1="36.689" x2="75.4855" y2="75.689" gradientUnits="userSpaceOnUse">
<stop stop-color="#010101"/>
<stop offset="1" stop-color="#F7C82E"/>
</linearGradient>
</defs>
</svg>
